<mxfile host="Electron" modified="2023-08-30T15:55:59.011Z" agent="Mozilla/5.0 (Windows NT 10.0; Win64; x64) AppleWebKit/537.36 (KHTML, like Gecko) draw.io/21.5.1 Chrome/112.0.5615.204 Electron/24.6.0 Safari/537.36" etag="EKDUAbu8Ns1JsR1IPZLC" version="21.5.1" type="device">
  <diagram name="第 1 页" id="p8Ot7CuBoU58tj20Dy7g">
    <mxGraphModel dx="1913" dy="482" grid="1" gridSize="10" guides="1" tooltips="1" connect="1" arrows="1" fold="1" page="1" pageScale="1" pageWidth="827" pageHeight="1169" math="0" shadow="0">
      <root>
        <mxCell id="0" />
        <mxCell id="1" parent="0" />
        <mxCell id="YYm0BfWB5YvHDTHmtt80-1" value="1" style="whiteSpace=wrap;html=1;aspect=fixed;fontStyle=1;fontSize=24;" vertex="1" parent="1">
          <mxGeometry x="50" y="120" width="80" height="80" as="geometry" />
        </mxCell>
        <mxCell id="YYm0BfWB5YvHDTHmtt80-2" value="6" style="whiteSpace=wrap;html=1;aspect=fixed;fontStyle=1;fontSize=24;" vertex="1" parent="1">
          <mxGeometry x="290" y="120" width="80" height="80" as="geometry" />
        </mxCell>
        <mxCell id="YYm0BfWB5YvHDTHmtt80-3" value="5" style="whiteSpace=wrap;html=1;aspect=fixed;fontStyle=1;fontSize=24;" vertex="1" parent="1">
          <mxGeometry x="210" y="120" width="80" height="80" as="geometry" />
        </mxCell>
        <mxCell id="YYm0BfWB5YvHDTHmtt80-4" value="3" style="whiteSpace=wrap;html=1;aspect=fixed;fontStyle=1;fontSize=24;" vertex="1" parent="1">
          <mxGeometry x="130" y="120" width="80" height="80" as="geometry" />
        </mxCell>
        <mxCell id="YYm0BfWB5YvHDTHmtt80-5" value="" style="shape=flexArrow;endArrow=classic;html=1;rounded=0;" edge="1" parent="1">
          <mxGeometry width="50" height="50" relative="1" as="geometry">
            <mxPoint x="20" y="60" as="sourcePoint" />
            <mxPoint x="20" y="120" as="targetPoint" />
          </mxGeometry>
        </mxCell>
        <mxCell id="YYm0BfWB5YvHDTHmtt80-6" value="" style="shape=flexArrow;endArrow=classic;html=1;rounded=0;" edge="1" parent="1">
          <mxGeometry width="50" height="50" relative="1" as="geometry">
            <mxPoint x="129" y="60" as="sourcePoint" />
            <mxPoint x="129" y="120" as="targetPoint" />
          </mxGeometry>
        </mxCell>
        <mxCell id="YYm0BfWB5YvHDTHmtt80-7" value="" style="shape=flexArrow;endArrow=classic;html=1;rounded=0;" edge="1" parent="1">
          <mxGeometry width="50" height="50" relative="1" as="geometry">
            <mxPoint x="249.5" y="60" as="sourcePoint" />
            <mxPoint x="249.5" y="120" as="targetPoint" />
          </mxGeometry>
        </mxCell>
        <mxCell id="YYm0BfWB5YvHDTHmtt80-8" value="" style="shape=flexArrow;endArrow=classic;html=1;rounded=0;" edge="1" parent="1">
          <mxGeometry width="50" height="50" relative="1" as="geometry">
            <mxPoint x="400" y="60" as="sourcePoint" />
            <mxPoint x="400" y="120" as="targetPoint" />
          </mxGeometry>
        </mxCell>
        <mxCell id="YYm0BfWB5YvHDTHmtt80-9" value="&lt;font style=&quot;font-size: 16px;&quot;&gt;目标值&lt;/font&gt;" style="text;html=1;align=center;verticalAlign=middle;resizable=0;points=[];autosize=1;strokeColor=none;fillColor=none;" vertex="1" parent="1">
          <mxGeometry x="-15" y="30" width="70" height="30" as="geometry" />
        </mxCell>
        <mxCell id="YYm0BfWB5YvHDTHmtt80-10" value="&lt;font style=&quot;font-size: 16px;&quot;&gt;目标值&lt;/font&gt;" style="text;html=1;align=center;verticalAlign=middle;resizable=0;points=[];autosize=1;strokeColor=none;fillColor=none;" vertex="1" parent="1">
          <mxGeometry x="370" y="30" width="70" height="30" as="geometry" />
        </mxCell>
        <mxCell id="YYm0BfWB5YvHDTHmtt80-11" value="&lt;font style=&quot;font-size: 16px;&quot;&gt;目标值&lt;/font&gt;" style="text;html=1;align=center;verticalAlign=middle;resizable=0;points=[];autosize=1;strokeColor=none;fillColor=none;" vertex="1" parent="1">
          <mxGeometry x="215" y="30" width="70" height="30" as="geometry" />
        </mxCell>
        <mxCell id="YYm0BfWB5YvHDTHmtt80-12" value="&lt;font style=&quot;font-size: 16px;&quot;&gt;目标值&lt;/font&gt;" style="text;html=1;align=center;verticalAlign=middle;resizable=0;points=[];autosize=1;strokeColor=none;fillColor=none;" vertex="1" parent="1">
          <mxGeometry x="90" y="30" width="70" height="30" as="geometry" />
        </mxCell>
      </root>
    </mxGraphModel>
  </diagram>
</mxfile>
